# xmcd
#
# Track frame offsets:
#       150
#       14395
#       27947
#       44845
#       88535
#       107212
#       124335
#       141157
#       157670
#       180137
#       209975
#       238297
#       255192
#       274592
#       289982
#
# Disc length: 4093 seconds
#
# Revision: 1
# Processed by: cddbd v1.5.2PL0 Copyright (c) Steve Scherf et al.
# Submitted via: FreeDbEdit v0.1
#
DISCID=d70ffb0f
DTITLE=The O'Jays - Super Hits
DYEAR=1989
DGENRE=R&B
TTITLE0=Back Stabbers
TTITLE1=Love Train
TTITLE2=Sunshine
TTITLE3=Ship Ahoy
TTITLE4=Put Your Hands Together
TTITLE5=For the Love of Money
TTITLE6=Survival
TTITLE7=Let Me Make Love to You
TTITLE8=Unity
TTITLE9=Livin' for the Weekend
TTITLE10=Stairway to Heaven
TTITLE11=I Love Music
TTITLE12=Darlin' Darlin' Baby
TTITLE13=Use to Be My Girl
TTITLE14=Forever Mine
EXTD=
EXTT0=
EXTT1=
EXTT2=
EXTT3=
EXTT4=
EXTT5=
EXTT6=
EXTT7=
EXTT8=
EXTT9=
EXTT10=
EXTT11=
EXTT12=
EXTT13=
EXTT14=
PLAYORDER=
